<?xml version="1.0" standalone="no"?>
<!DOCTYPE svg PUBLIC "-//W3C//DTD SVG 1.1//EN"
  "http://www.w3.org/Graphics/SVG/1.1/DTD/svg11.dtd">
<!-- Created with matplotlib (http://matplotlib.sourceforge.net/) -->
<svg width="392pt" height="243pt" viewBox="0 0 392 243"
   xmlns="http://www.w3.org/2000/svg"
   xmlns:xlink="http://www.w3.org/1999/xlink"
   version="1.1"
   id="svg1">
<filter id="colorAdd"><feComposite in="SourceGraphic" in2="BackgroundImage" operator="arithmetic" k2="1" k3="1"/></filter>
<g id="figure1">
<g id="patch1">
<path style="fill: #ffffff; stroke: #ffffff; stroke-width: 1.000000; stroke-linejoin: round; stroke-linecap: square;  opacity: 1.000000"  d="M0.000000 243.992547L392.774240 243.992547L392.774240 0.000000
L0.000000 0.000000L0.000000 243.992547"/>
</g>
<g id="axes1">
<g id="patch2">
<path style="fill: #ffffff; opacity: 1.000000"  d="M10.774240 236.792547L345.574240 236.792547L345.574240 23.200000
L10.774240 23.200000L10.774240 236.792547"/>
</g>
<g id="line2d1">
<defs>
  <clipPath id="pdad26e4bcff412f82755d797e727d308">
<rect x="10.774240" y="23.200000" width="334.800000" height="213.592547"/>
  </clipPath>
</defs><path style="fill: none; stroke: #0000ff; stroke-width: 1.000000; stroke-linejoin: round; stroke-linecap: square;  opacity: 1.000000" clip-path="url(#pdad26e4bcff412f82755d797e727d308)" d="M29.356250 129.996273L29.356250 35.054775"/>
</g>
<g id="line2d2">
<path style="fill: none; stroke: #0000ff; stroke-width: 1.000000; stroke-linejoin: round; stroke-linecap: square;  opacity: 1.000000" clip-path="url(#pdad26e4bcff412f82755d797e727d308)" d="M35.430454 129.996273L35.430454 39.701543"/>
</g>
<g id="line2d3">
<path style="fill: none; stroke: #0000ff; stroke-width: 1.000000; stroke-linejoin: round; stroke-linecap: square;  opacity: 1.000000" clip-path="url(#pdad26e4bcff412f82755d797e727d308)" d="M41.504657 129.996273L41.504657 53.186988"/>
</g>
<g id="line2d4">
<path style="fill: none; stroke: #0000ff; stroke-width: 1.000000; stroke-linejoin: round; stroke-linecap: square;  opacity: 1.000000" clip-path="url(#pdad26e4bcff412f82755d797e727d308)" d="M47.578861 129.996273L47.578861 74.191061"/>
</g>
<g id="line2d5">
<path style="fill: none; stroke: #0000ff; stroke-width: 1.000000; stroke-linejoin: round; stroke-linecap: square;  opacity: 1.000000" clip-path="url(#pdad26e4bcff412f82755d797e727d308)" d="M53.653065 129.996273L53.653065 100.657737"/>
</g>
<g id="line2d6">
<path style="fill: none; stroke: #0000ff; stroke-width: 1.000000; stroke-linejoin: round; stroke-linecap: square;  opacity: 1.000000" clip-path="url(#pdad26e4bcff412f82755d797e727d308)" d="M59.727268 129.996273L59.727268 129.996273"/>
</g>
<g id="line2d7">
<path style="fill: none; stroke: #0000ff; stroke-width: 1.000000; stroke-linejoin: round; stroke-linecap: square;  opacity: 1.000000" clip-path="url(#pdad26e4bcff412f82755d797e727d308)" d="M65.801472 129.996273L65.801472 159.334810"/>
</g>
<g id="line2d8">
<path style="fill: none; stroke: #0000ff; stroke-width: 1.000000; stroke-linejoin: round; stroke-linecap: square;  opacity: 1.000000" clip-path="url(#pdad26e4bcff412f82755d797e727d308)" d="M71.875676 129.996273L71.875676 185.801486"/>
</g>
<g id="line2d9">
<path style="fill: none; stroke: #0000ff; stroke-width: 1.000000; stroke-linejoin: round; stroke-linecap: square;  opacity: 1.000000" clip-path="url(#pdad26e4bcff412f82755d797e727d308)" d="M77.949880 129.996273L77.949880 206.805559"/>
</g>
<g id="line2d10">
<path style="fill: none; stroke: #0000ff; stroke-width: 1.000000; stroke-linejoin: round; stroke-linecap: square;  opacity: 1.000000" clip-path="url(#pdad26e4bcff412f82755d797e727d308)" d="M84.024083 129.996273L84.024083 220.291004"/>
</g>
<g id="line2d11">
<path style="fill: none; stroke: #0000ff; stroke-width: 1.000000; stroke-linejoin: round; stroke-linecap: square;  opacity: 1.000000" clip-path="url(#pdad26e4bcff412f82755d797e727d308)" d="M90.098287 129.996273L90.098287 224.937771"/>
</g>
<g id="line2d12">
<path style="fill: none; stroke: #0000ff; stroke-width: 1.000000; stroke-linejoin: round; stroke-linecap: square;  opacity: 1.000000" clip-path="url(#pdad26e4bcff412f82755d797e727d308)" d="M96.172491 129.996273L96.172491 220.291004"/>
</g>
<g id="line2d13">
<path style="fill: none; stroke: #0000ff; stroke-width: 1.000000; stroke-linejoin: round; stroke-linecap: square;  opacity: 1.000000" clip-path="url(#pdad26e4bcff412f82755d797e727d308)" d="M102.246694 129.996273L102.246694 206.805559"/>
</g>
<g id="line2d14">
<path style="fill: none; stroke: #0000ff; stroke-width: 1.000000; stroke-linejoin: round; stroke-linecap: square;  opacity: 1.000000" clip-path="url(#pdad26e4bcff412f82755d797e727d308)" d="M108.320898 129.996273L108.320898 185.801486"/>
</g>
<g id="line2d15">
<path style="fill: none; stroke: #0000ff; stroke-width: 1.000000; stroke-linejoin: round; stroke-linecap: square;  opacity: 1.000000" clip-path="url(#pdad26e4bcff412f82755d797e727d308)" d="M114.395102 129.996273L114.395102 159.334810"/>
</g>
<g id="line2d16">
<path style="fill: none; stroke: #0000ff; stroke-width: 1.000000; stroke-linejoin: round; stroke-linecap: square;  opacity: 1.000000" clip-path="url(#pdad26e4bcff412f82755d797e727d308)" d="M120.469305 129.996273L120.469305 129.996273"/>
</g>
<g id="line2d17">
<path style="fill: none; stroke: #0000ff; stroke-width: 1.000000; stroke-linejoin: round; stroke-linecap: square;  opacity: 1.000000" clip-path="url(#pdad26e4bcff412f82755d797e727d308)" d="M126.543509 129.996273L126.543509 100.657737"/>
</g>
<g id="line2d18">
<path style="fill: none; stroke: #0000ff; stroke-width: 1.000000; stroke-linejoin: round; stroke-linecap: square;  opacity: 1.000000" clip-path="url(#pdad26e4bcff412f82755d797e727d308)" d="M132.617713 129.996273L132.617713 74.191061"/>
</g>
<g id="line2d19">
<path style="fill: none; stroke: #0000ff; stroke-width: 1.000000; stroke-linejoin: round; stroke-linecap: square;  opacity: 1.000000" clip-path="url(#pdad26e4bcff412f82755d797e727d308)" d="M138.691916 129.996273L138.691916 53.186988"/>
</g>
<g id="line2d20">
<path style="fill: none; stroke: #0000ff; stroke-width: 1.000000; stroke-linejoin: round; stroke-linecap: square;  opacity: 1.000000" clip-path="url(#pdad26e4bcff412f82755d797e727d308)" d="M144.766120 129.996273L144.766120 39.701543"/>
</g>
<g id="line2d21">
<path style="fill: none; stroke: #0000ff; stroke-width: 1.000000; stroke-linejoin: round; stroke-linecap: square;  opacity: 1.000000" clip-path="url(#pdad26e4bcff412f82755d797e727d308)" d="M150.840324 129.996273L150.840324 35.054775"/>
</g>
<g id="line2d22">
<path style="fill: none; stroke: #0000ff; stroke-width: 1.000000; stroke-linejoin: round; stroke-linecap: square;  opacity: 1.000000" clip-path="url(#pdad26e4bcff412f82755d797e727d308)" d="M156.914528 129.996273L156.914528 39.701543"/>
</g>
<g id="line2d23">
<path style="fill: none; stroke: #0000ff; stroke-width: 1.000000; stroke-linejoin: round; stroke-linecap: square;  opacity: 1.000000" clip-path="url(#pdad26e4bcff412f82755d797e727d308)" d="M162.988731 129.996273L162.988731 53.186988"/>
</g>
<g id="line2d24">
<path style="fill: none; stroke: #0000ff; stroke-width: 1.000000; stroke-linejoin: round; stroke-linecap: square;  opacity: 1.000000" clip-path="url(#pdad26e4bcff412f82755d797e727d308)" d="M169.062935 129.996273L169.062935 74.191061"/>
</g>
<g id="line2d25">
<path style="fill: none; stroke: #0000ff; stroke-width: 1.000000; stroke-linejoin: round; stroke-linecap: square;  opacity: 1.000000" clip-path="url(#pdad26e4bcff412f82755d797e727d308)" d="M175.137139 129.996273L175.137139 100.657737"/>
</g>
<g id="line2d26">
<path style="fill: none; stroke: #0000ff; stroke-width: 1.000000; stroke-linejoin: round; stroke-linecap: square;  opacity: 1.000000" clip-path="url(#pdad26e4bcff412f82755d797e727d308)" d="M181.211342 129.996273L181.211342 129.996273"/>
</g>
<g id="line2d27">
<path style="fill: none; stroke: #0000ff; stroke-width: 1.000000; stroke-linejoin: round; stroke-linecap: square;  opacity: 1.000000" clip-path="url(#pdad26e4bcff412f82755d797e727d308)" d="M187.285546 129.996273L187.285546 159.334810"/>
</g>
<g id="line2d28">
<path style="fill: none; stroke: #0000ff; stroke-width: 1.000000; stroke-linejoin: round; stroke-linecap: square;  opacity: 1.000000" clip-path="url(#pdad26e4bcff412f82755d797e727d308)" d="M193.359750 129.996273L193.359750 185.801486"/>
</g>
<g id="line2d29">
<path style="fill: none; stroke: #0000ff; stroke-width: 1.000000; stroke-linejoin: round; stroke-linecap: square;  opacity: 1.000000" clip-path="url(#pdad26e4bcff412f82755d797e727d308)" d="M199.433953 129.996273L199.433953 206.805559"/>
</g>
<g id="line2d30">
<path style="fill: none; stroke: #0000ff; stroke-width: 1.000000; stroke-linejoin: round; stroke-linecap: square;  opacity: 1.000000" clip-path="url(#pdad26e4bcff412f82755d797e727d308)" d="M205.508157 129.996273L205.508157 220.291004"/>
</g>
<g id="line2d31">
<path style="fill: none; stroke: #0000ff; stroke-width: 1.000000; stroke-linejoin: round; stroke-linecap: square;  opacity: 1.000000" clip-path="url(#pdad26e4bcff412f82755d797e727d308)" d="M211.582361 129.996273L211.582361 224.937771"/>
</g>
<g id="line2d32">
<path style="fill: none; stroke: #0000ff; stroke-width: 1.000000; stroke-linejoin: round; stroke-linecap: square;  opacity: 1.000000" clip-path="url(#pdad26e4bcff412f82755d797e727d308)" d="M217.656564 129.996273L217.656564 220.291004"/>
</g>
<g id="line2d33">
<path style="fill: none; stroke: #0000ff; stroke-width: 1.000000; stroke-linejoin: round; stroke-linecap: square;  opacity: 1.000000" clip-path="url(#pdad26e4bcff412f82755d797e727d308)" d="M223.730768 129.996273L223.730768 206.805559"/>
</g>
<g id="line2d34">
<path style="fill: none; stroke: #0000ff; stroke-width: 1.000000; stroke-linejoin: round; stroke-linecap: square;  opacity: 1.000000" clip-path="url(#pdad26e4bcff412f82755d797e727d308)" d="M229.804972 129.996273L229.804972 185.801486"/>
</g>
<g id="line2d35">
<path style="fill: none; stroke: #0000ff; stroke-width: 1.000000; stroke-linejoin: round; stroke-linecap: square;  opacity: 1.000000" clip-path="url(#pdad26e4bcff412f82755d797e727d308)" d="M235.879176 129.996273L235.879176 159.334810"/>
</g>
<g id="line2d36">
<path style="fill: none; stroke: #0000ff; stroke-width: 1.000000; stroke-linejoin: round; stroke-linecap: square;  opacity: 1.000000" clip-path="url(#pdad26e4bcff412f82755d797e727d308)" d="M241.953379 129.996273L241.953379 129.996273"/>
</g>
<g id="line2d37">
<path style="fill: none; stroke: #0000ff; stroke-width: 1.000000; stroke-linejoin: round; stroke-linecap: square;  opacity: 1.000000" clip-path="url(#pdad26e4bcff412f82755d797e727d308)" d="M248.027583 129.996273L248.027583 100.657737"/>
</g>
<g id="line2d38">
<path style="fill: none; stroke: #0000ff; stroke-width: 1.000000; stroke-linejoin: round; stroke-linecap: square;  opacity: 1.000000" clip-path="url(#pdad26e4bcff412f82755d797e727d308)" d="M254.101787 129.996273L254.101787 74.191061"/>
</g>
<g id="line2d39">
<path style="fill: none; stroke: #0000ff; stroke-width: 1.000000; stroke-linejoin: round; stroke-linecap: square;  opacity: 1.000000" clip-path="url(#pdad26e4bcff412f82755d797e727d308)" d="M260.175990 129.996273L260.175990 53.186988"/>
</g>
<g id="line2d40">
<path style="fill: none; stroke: #0000ff; stroke-width: 1.000000; stroke-linejoin: round; stroke-linecap: square;  opacity: 1.000000" clip-path="url(#pdad26e4bcff412f82755d797e727d308)" d="M266.250194 129.996273L266.250194 39.701543"/>
</g>
<g id="line2d41">
<path style="fill: none; stroke: #0000ff; stroke-width: 1.000000; stroke-linejoin: round; stroke-linecap: square;  opacity: 1.000000" clip-path="url(#pdad26e4bcff412f82755d797e727d308)" d="M272.324398 129.996273L272.324398 35.054775"/>
</g>
<g id="line2d42">
<path style="fill: none; stroke: #0000ff; stroke-width: 1.000000; stroke-linejoin: round; stroke-linecap: square;  opacity: 1.000000" clip-path="url(#pdad26e4bcff412f82755d797e727d308)" d="M278.398601 129.996273L278.398601 39.701543"/>
</g>
<g id="line2d43">
<path style="fill: none; stroke: #0000ff; stroke-width: 1.000000; stroke-linejoin: round; stroke-linecap: square;  opacity: 1.000000" clip-path="url(#pdad26e4bcff412f82755d797e727d308)" d="M284.472805 129.996273L284.472805 53.186988"/>
</g>
<g id="line2d44">
<path style="fill: none; stroke: #0000ff; stroke-width: 1.000000; stroke-linejoin: round; stroke-linecap: square;  opacity: 1.000000" clip-path="url(#pdad26e4bcff412f82755d797e727d308)" d="M290.547009 129.996273L290.547009 74.191061"/>
</g>
<g id="line2d45">
<path style="fill: none; stroke: #0000ff; stroke-width: 1.000000; stroke-linejoin: round; stroke-linecap: square;  opacity: 1.000000" clip-path="url(#pdad26e4bcff412f82755d797e727d308)" d="M296.621212 129.996273L296.621212 100.657737"/>
</g>
<g id="line2d46">
<path style="fill: none; stroke: #0000ff; stroke-width: 1.000000; stroke-linejoin: round; stroke-linecap: square;  opacity: 1.000000" clip-path="url(#pdad26e4bcff412f82755d797e727d308)" d="M302.695416 129.996273L302.695416 129.996273"/>
</g>
<g id="line2d47">
<path style="fill: none; stroke: #0000ff; stroke-width: 1.000000; stroke-linejoin: round; stroke-linecap: square;  opacity: 1.000000" clip-path="url(#pdad26e4bcff412f82755d797e727d308)" d="M308.769620 129.996273L308.769620 159.334810"/>
</g>
<g id="line2d48">
<path style="fill: none; stroke: #0000ff; stroke-width: 1.000000; stroke-linejoin: round; stroke-linecap: square;  opacity: 1.000000" clip-path="url(#pdad26e4bcff412f82755d797e727d308)" d="M314.843824 129.996273L314.843824 185.801486"/>
</g>
<g id="line2d49">
<path style="fill: none; stroke: #0000ff; stroke-width: 1.000000; stroke-linejoin: round; stroke-linecap: square;  opacity: 1.000000" clip-path="url(#pdad26e4bcff412f82755d797e727d308)" d="M320.918027 129.996273L320.918027 206.805559"/>
</g>
<g id="line2d50">
<path style="fill: none; stroke: #0000ff; stroke-width: 1.000000; stroke-linejoin: round; stroke-linecap: square;  opacity: 1.000000" clip-path="url(#pdad26e4bcff412f82755d797e727d308)" d="M326.992231 129.996273L326.992231 220.291004"/>
</g>
<g id="matplotlib.axis1">
<g id="xtick1">
<g id="line2d51">
<defs><path id="m30e32995789d870ad79a2e54c91cf9c6" d="M0.000000 0.000000L0.000000 -4.000000"/></defs>
<g ><use style="fill: none; stroke: #000000; stroke-width: 0.500000; stroke-linejoin: round; stroke-linecap: butt;  opacity: 1.000000" xlink:href="#m30e32995789d870ad79a2e54c91cf9c6" x="29.356250" y="129.996273"/>
</g></g>
</g>
<g id="xtick2">
<g id="line2d52">
<g ><use style="fill: none; stroke: #000000; stroke-width: 0.500000; stroke-linejoin: round; stroke-linecap: butt;  opacity: 1.000000" xlink:href="#m30e32995789d870ad79a2e54c91cf9c6" x="90.098287" y="129.996273"/>
</g></g>
<g id="text1">
<defs>
<path id="c_7a2040fe3b94fcd41d0a72c84e93b115" d="M31.781250 -66.406250q-7.609375 0.000000 -11.453125 7.500000q-3.828125 7.484375 -3.828125 22.531250q0.000000 14.984375 3.828125 22.484375q3.843750 7.500000 11.453125 7.500000q7.671875 0.000000 11.500000 -7.500000q3.843750 -7.500000 3.843750 -22.484375q0.000000 -15.046875 -3.843750 -22.531250q-3.828125 -7.500000 -11.500000 -7.500000M31.781250 -74.218750q12.265625 0.000000 18.734375 9.703125q6.468750 9.687500 6.468750 28.140625q0.000000 18.406250 -6.468750 28.109375q-6.468750 9.687500 -18.734375 9.687500q-12.250000 0.000000 -18.718750 -9.687500q-6.468750 -9.703125 -6.468750 -28.109375q0.000000 -18.453125 6.468750 -28.140625q6.468750 -9.703125 18.718750 -9.703125"/>
<path id="c_ed3e21196fb739f392806f09ca0594ef" d="M10.687500 -12.406250l10.312500 0.000000l0.000000 12.406250l-10.312500 0.000000z"/>
<path id="c_42baa63129a918535c52adb20d687ea7" d="M12.406250 -8.296875l16.109375 0.000000l0.000000 -55.625000l-17.531250 3.515625l0.000000 -8.984375l17.437500 -3.515625l9.859375 0.000000l0.000000 64.609375l16.109375 0.000000l0.000000 8.296875l-41.984375 0.000000z"/>
</defs>
<g style="fill: #000000; opacity: 1.000000" transform="translate(79.754537,141.418148)scale(0.100000)">
<use xlink:href="#c_7a2040fe3b94fcd41d0a72c84e93b115"/>
<use xlink:href="#c_ed3e21196fb739f392806f09ca0594ef" x="63.623047"/>
<use xlink:href="#c_7a2040fe3b94fcd41d0a72c84e93b115" x="95.410156"/>
<use xlink:href="#c_42baa63129a918535c52adb20d687ea7" x="159.033203"/>
</g>
</g>
</g>
<g id="xtick3">
<g id="line2d53">
<g ><use style="fill: none; stroke: #000000; stroke-width: 0.500000; stroke-linejoin: round; stroke-linecap: butt;  opacity: 1.000000" xlink:href="#m30e32995789d870ad79a2e54c91cf9c6" x="150.840324" y="129.996273"/>
</g></g>
<g id="text2">
<defs>
<path id="c_ed3f3ed3ebfbd18bcb9c012009a68ad1" d="M19.187500 -8.296875l34.421875 0.000000l0.000000 8.296875l-46.281250 0.000000l0.000000 -8.296875q5.609375 -5.812500 15.296875 -15.593750q9.703125 -9.796875 12.187500 -12.640625q4.734375 -5.312500 6.609375 -9.000000q1.890625 -3.687500 1.890625 -7.250000q0.000000 -5.812500 -4.078125 -9.468750q-4.078125 -3.671875 -10.625000 -3.671875q-4.640625 0.000000 -9.796875 1.609375q-5.140625 1.609375 -11.000000 4.890625l0.000000 -9.968750q5.953125 -2.390625 11.125000 -3.609375q5.187500 -1.218750 9.484375 -1.218750q11.328125 0.000000 18.062500 5.671875q6.734375 5.656250 6.734375 15.125000q0.000000 4.500000 -1.687500 8.531250q-1.671875 4.015625 -6.125000 9.484375q-1.218750 1.421875 -7.765625 8.187500q-6.531250 6.765625 -18.453125 18.921875"/>
</defs>
<g style="fill: #000000; opacity: 1.000000" transform="translate(140.535636,141.418148)scale(0.100000)">
<use xlink:href="#c_7a2040fe3b94fcd41d0a72c84e93b115"/>
<use xlink:href="#c_ed3e21196fb739f392806f09ca0594ef" x="63.623047"/>
<use xlink:href="#c_7a2040fe3b94fcd41d0a72c84e93b115" x="95.410156"/>
<use xlink:href="#c_ed3f3ed3ebfbd18bcb9c012009a68ad1" x="159.033203"/>
</g>
</g>
</g>
<g id="xtick4">
<g id="line2d54">
<g ><use style="fill: none; stroke: #000000; stroke-width: 0.500000; stroke-linejoin: round; stroke-linecap: butt;  opacity: 1.000000" xlink:href="#m30e32995789d870ad79a2e54c91cf9c6" x="211.582361" y="129.996273"/>
</g></g>
<g id="text3">
<defs>
<path id="c_3dcfa38a02242cb63ec6726c6e70be7a" d="M40.578125 -39.312500q7.078125 1.515625 11.046875 6.312500q3.984375 4.781250 3.984375 11.812500q0.000000 10.781250 -7.421875 16.703125q-7.421875 5.906250 -21.093750 5.906250q-4.578125 0.000000 -9.437500 -0.906250q-4.859375 -0.906250 -10.031250 -2.718750l0.000000 -9.515625q4.093750 2.390625 8.968750 3.609375q4.890625 1.218750 10.218750 1.218750q9.265625 0.000000 14.125000 -3.656250q4.859375 -3.656250 4.859375 -10.640625q0.000000 -6.453125 -4.515625 -10.078125q-4.515625 -3.640625 -12.562500 -3.640625l-8.500000 0.000000l0.000000 -8.109375l8.890625 0.000000q7.265625 0.000000 11.125000 -2.906250q3.859375 -2.906250 3.859375 -8.375000q0.000000 -5.609375 -3.984375 -8.609375q-3.968750 -3.015625 -11.390625 -3.015625q-4.062500 0.000000 -8.703125 0.890625q-4.640625 0.875000 -10.203125 2.718750l0.000000 -8.781250q5.625000 -1.562500 10.531250 -2.343750q4.906250 -0.781250 9.250000 -0.781250q11.234375 0.000000 17.765625 5.109375q6.546875 5.093750 6.546875 13.781250q0.000000 6.062500 -3.468750 10.234375q-3.468750 4.171875 -9.859375 5.781250"/>
</defs>
<g style="fill: #000000; opacity: 1.000000" transform="translate(201.176111,141.418148)scale(0.100000)">
<use xlink:href="#c_7a2040fe3b94fcd41d0a72c84e93b115"/>
<use xlink:href="#c_ed3e21196fb739f392806f09ca0594ef" x="63.623047"/>
<use xlink:href="#c_7a2040fe3b94fcd41d0a72c84e93b115" x="95.410156"/>
<use xlink:href="#c_3dcfa38a02242cb63ec6726c6e70be7a" x="159.033203"/>
</g>
</g>
</g>
<g id="xtick5">
<g id="line2d55">
<g ><use style="fill: none; stroke: #000000; stroke-width: 0.500000; stroke-linejoin: round; stroke-linecap: butt;  opacity: 1.000000" xlink:href="#m30e32995789d870ad79a2e54c91cf9c6" x="272.324398" y="129.996273"/>
</g></g>
<g id="text4">
<defs>
<path id="c_a0416418d96557a09b8c1332d34883ba" d="M37.796875 -64.312500l-24.906250 38.921875l24.906250 0.000000zM35.203125 -72.906250l12.406250 0.000000l0.000000 47.515625l10.406250 0.000000l0.000000 8.203125l-10.406250 0.000000l0.000000 17.187500l-9.812500 0.000000l0.000000 -17.187500l-32.906250 0.000000l0.000000 -9.515625z"/>
</defs>
<g style="fill: #000000; opacity: 1.000000" transform="translate(261.800960,141.418148)scale(0.100000)">
<use xlink:href="#c_7a2040fe3b94fcd41d0a72c84e93b115"/>
<use xlink:href="#c_ed3e21196fb739f392806f09ca0594ef" x="63.623047"/>
<use xlink:href="#c_7a2040fe3b94fcd41d0a72c84e93b115" x="95.410156"/>
<use xlink:href="#c_a0416418d96557a09b8c1332d34883ba" x="159.033203"/>
</g>
</g>
</g>
<g id="xtick6">
<g id="line2d56">
<g ><use style="fill: none; stroke: #000000; stroke-width: 0.500000; stroke-linejoin: round; stroke-linecap: butt;  opacity: 1.000000" xlink:href="#m30e32995789d870ad79a2e54c91cf9c6" x="333.066435" y="129.996273"/>
</g></g>
<g id="text5">
<defs>
<path id="c_1260a2df50f305f3db244e29828f968e" d="M10.796875 -72.906250l38.718750 0.000000l0.000000 8.312500l-29.687500 0.000000l0.000000 17.859375q2.140625 -0.734375 4.281250 -1.093750q2.156250 -0.359375 4.312500 -0.359375q12.203125 0.000000 19.328125 6.687500q7.140625 6.687500 7.140625 18.109375q0.000000 11.765625 -7.328125 18.296875q-7.328125 6.515625 -20.656250 6.515625q-4.593750 0.000000 -9.359375 -0.781250q-4.750000 -0.781250 -9.828125 -2.343750l0.000000 -9.921875q4.390625 2.390625 9.078125 3.562500q4.687500 1.171875 9.906250 1.171875q8.453125 0.000000 13.375000 -4.437500q4.937500 -4.437500 4.937500 -12.062500q0.000000 -7.609375 -4.937500 -12.046875q-4.921875 -4.453125 -13.375000 -4.453125q-3.953125 0.000000 -7.890625 0.875000q-3.921875 0.875000 -8.015625 2.734375z"/>
</defs>
<g style="fill: #000000; opacity: 1.000000" transform="translate(322.699247,141.418148)scale(0.100000)">
<use xlink:href="#c_7a2040fe3b94fcd41d0a72c84e93b115"/>
<use xlink:href="#c_ed3e21196fb739f392806f09ca0594ef" x="63.623047"/>
<use xlink:href="#c_7a2040fe3b94fcd41d0a72c84e93b115" x="95.410156"/>
<use xlink:href="#c_1260a2df50f305f3db244e29828f968e" x="159.033203"/>
</g>
</g>
</g>
<g id="xtick7">
<g id="line2d57">
<defs><path id="m3b2d125790092c17af877e29e2858cbc" d="M0.000000 0.000000L0.000000 -2.000000"/></defs>
<g ><use style="fill: none; stroke: #000000; stroke-width: 0.500000; stroke-linejoin: round; stroke-linecap: butt;  opacity: 1.000000" xlink:href="#m3b2d125790092c17af877e29e2858cbc" x="14.170741" y="129.996273"/>
</g></g>
</g>
<g id="xtick8">
<g id="line2d58">
<g ><use style="fill: none; stroke: #000000; stroke-width: 0.500000; stroke-linejoin: round; stroke-linecap: butt;  opacity: 1.000000" xlink:href="#m3b2d125790092c17af877e29e2858cbc" x="44.541759" y="129.996273"/>
</g></g>
</g>
<g id="xtick9">
<g id="line2d59">
<g ><use style="fill: none; stroke: #000000; stroke-width: 0.500000; stroke-linejoin: round; stroke-linecap: butt;  opacity: 1.000000" xlink:href="#m3b2d125790092c17af877e29e2858cbc" x="59.727268" y="129.996273"/>
</g></g>
</g>
<g id="xtick10">
<g id="line2d60">
<g ><use style="fill: none; stroke: #000000; stroke-width: 0.500000; stroke-linejoin: round; stroke-linecap: butt;  opacity: 1.000000" xlink:href="#m3b2d125790092c17af877e29e2858cbc" x="74.912778" y="129.996273"/>
</g></g>
</g>
<g id="xtick11">
<g id="line2d61">
<g ><use style="fill: none; stroke: #000000; stroke-width: 0.500000; stroke-linejoin: round; stroke-linecap: butt;  opacity: 1.000000" xlink:href="#m3b2d125790092c17af877e29e2858cbc" x="105.283796" y="129.996273"/>
</g></g>
</g>
<g id="xtick12">
<g id="line2d62">
<g ><use style="fill: none; stroke: #000000; stroke-width: 0.500000; stroke-linejoin: round; stroke-linecap: butt;  opacity: 1.000000" xlink:href="#m3b2d125790092c17af877e29e2858cbc" x="120.469305" y="129.996273"/>
</g></g>
</g>
<g id="xtick13">
<g id="line2d63">
<g ><use style="fill: none; stroke: #000000; stroke-width: 0.500000; stroke-linejoin: round; stroke-linecap: butt;  opacity: 1.000000" xlink:href="#m3b2d125790092c17af877e29e2858cbc" x="135.654815" y="129.996273"/>
</g></g>
</g>
<g id="xtick14">
<g id="line2d64">
<g ><use style="fill: none; stroke: #000000; stroke-width: 0.500000; stroke-linejoin: round; stroke-linecap: butt;  opacity: 1.000000" xlink:href="#m3b2d125790092c17af877e29e2858cbc" x="166.025833" y="129.996273"/>
</g></g>
</g>
<g id="xtick15">
<g id="line2d65">
<g ><use style="fill: none; stroke: #000000; stroke-width: 0.500000; stroke-linejoin: round; stroke-linecap: butt;  opacity: 1.000000" xlink:href="#m3b2d125790092c17af877e29e2858cbc" x="181.211342" y="129.996273"/>
</g></g>
</g>
<g id="xtick16">
<g id="line2d66">
<g ><use style="fill: none; stroke: #000000; stroke-width: 0.500000; stroke-linejoin: round; stroke-linecap: butt;  opacity: 1.000000" xlink:href="#m3b2d125790092c17af877e29e2858cbc" x="196.396852" y="129.996273"/>
</g></g>
</g>
<g id="xtick17">
<g id="line2d67">
<g ><use style="fill: none; stroke: #000000; stroke-width: 0.500000; stroke-linejoin: round; stroke-linecap: butt;  opacity: 1.000000" xlink:href="#m3b2d125790092c17af877e29e2858cbc" x="226.767870" y="129.996273"/>
</g></g>
</g>
<g id="xtick18">
<g id="line2d68">
<g ><use style="fill: none; stroke: #000000; stroke-width: 0.500000; stroke-linejoin: round; stroke-linecap: butt;  opacity: 1.000000" xlink:href="#m3b2d125790092c17af877e29e2858cbc" x="241.953379" y="129.996273"/>
</g></g>
</g>
<g id="xtick19">
<g id="line2d69">
<g ><use style="fill: none; stroke: #000000; stroke-width: 0.500000; stroke-linejoin: round; stroke-linecap: butt;  opacity: 1.000000" xlink:href="#m3b2d125790092c17af877e29e2858cbc" x="257.138888" y="129.996273"/>
</g></g>
</g>
<g id="xtick20">
<g id="line2d70">
<g ><use style="fill: none; stroke: #000000; stroke-width: 0.500000; stroke-linejoin: round; stroke-linecap: butt;  opacity: 1.000000" xlink:href="#m3b2d125790092c17af877e29e2858cbc" x="287.509907" y="129.996273"/>
</g></g>
</g>
<g id="xtick21">
<g id="line2d71">
<g ><use style="fill: none; stroke: #000000; stroke-width: 0.500000; stroke-linejoin: round; stroke-linecap: butt;  opacity: 1.000000" xlink:href="#m3b2d125790092c17af877e29e2858cbc" x="302.695416" y="129.996273"/>
</g></g>
</g>
<g id="xtick22">
<g id="line2d72">
<g ><use style="fill: none; stroke: #000000; stroke-width: 0.500000; stroke-linejoin: round; stroke-linecap: butt;  opacity: 1.000000" xlink:href="#m3b2d125790092c17af877e29e2858cbc" x="317.880925" y="129.996273"/>
</g></g>
</g>
<g id="text6">
<defs>
<path id="c_e86f490bde0b3795f8a34411d82f95e4" d="M12.109375 1.125000q-5.656250 0.000000 -8.171875 -4.140625q-2.515625 -4.156250 -2.515625 -10.171875q0.000000 -3.953125 0.703125 -7.734375q0.703125 -3.781250 2.140625 -7.656250q1.453125 -3.890625 3.296875 -7.281250q1.859375 -3.406250 4.156250 -6.625000q0.437500 -0.625000 1.171875 -0.625000q0.640625 0.000000 1.031250 0.390625q0.390625 0.390625 0.390625 0.921875q0.000000 0.531250 -0.296875 0.968750q-9.125000 12.562500 -9.125000 23.156250q0.000000 4.578125 2.109375 7.875000q2.125000 3.296875 6.484375 3.296875q3.750000 0.000000 6.953125 -2.187500q3.203125 -2.203125 5.546875 -5.625000q0.000000 -1.750000 0.609375 -5.453125q0.609375 -3.718750 1.890625 -6.625000q1.296875 -2.906250 3.109375 -2.906250q2.296875 0.000000 2.296875 2.687500q0.000000 1.562500 -0.671875 3.937500q-0.656250 2.359375 -1.468750 4.406250q-0.796875 2.046875 -1.968750 4.640625q1.171875 7.125000 7.140625 7.125000q3.453125 0.000000 6.937500 -2.000000q3.500000 -2.000000 6.187500 -5.250000q2.687500 -3.250000 4.218750 -7.000000q1.546875 -3.765625 1.546875 -7.125000q0.000000 -3.031250 -0.953125 -4.718750q-0.953125 -1.687500 -2.515625 -3.531250q-1.562500 -1.859375 -1.562500 -2.984375q0.000000 -1.953125 1.656250 -3.562500q1.671875 -1.609375 3.562500 -1.609375q2.453125 0.000000 3.468750 2.218750q1.031250 2.218750 1.031250 5.046875q0.000000 4.593750 -1.828125 11.578125q-1.828125 6.984375 -4.171875 11.625000q-3.234375 6.296875 -8.093750 10.625000q-4.859375 4.312500 -10.906250 4.312500q-3.859375 0.000000 -6.234375 -2.312500q-2.359375 -2.328125 -3.046875 -6.328125q-2.781250 3.953125 -6.343750 6.296875q-3.562500 2.343750 -7.765625 2.343750"/>
<path id="c_d385b7bbe58e08154ff387bfd902116e" d="M6.203125 -8.109375q0.000000 -1.468750 0.296875 -2.781250l7.218750 -28.703125l-10.500000 0.000000q-1.015625 0.000000 -1.015625 -1.328125q0.390625 -2.187500 1.312500 -2.187500l11.078125 0.000000l4.015625 -16.312500q0.390625 -1.328125 1.562500 -2.250000q1.171875 -0.921875 2.625000 -0.921875q1.281250 0.000000 2.125000 0.765625q0.859375 0.750000 0.859375 2.015625q0.000000 0.296875 -0.031250 0.468750q-0.015625 0.156250 -0.062500 0.359375l-4.000000 15.875000l10.296875 0.000000q1.031250 0.000000 1.031250 1.312500q-0.062500 0.250000 -0.203125 0.843750q-0.140625 0.578125 -0.390625 0.968750q-0.250000 0.390625 -0.734375 0.390625l-10.890625 0.000000l-7.171875 28.906250q-0.734375 2.828125 -0.734375 4.875000q0.000000 4.296875 2.937500 4.296875q4.390625 0.000000 7.781250 -4.125000q3.390625 -4.125000 5.203125 -9.062500q0.390625 -0.578125 0.781250 -0.578125l1.218750 0.000000q0.390625 0.000000 0.625000 0.265625q0.250000 0.265625 0.250000 0.609375q0.000000 0.203125 -0.093750 0.296875q-2.203125 6.046875 -6.406250 10.640625q-4.187500 4.593750 -9.609375 4.593750q-3.953125 0.000000 -6.671875 -2.578125q-2.703125 -2.593750 -2.703125 -6.656250"/>
<path id="c_06a7a4502300c60b4feec85758ecf628" d="M31.000000 24.812500q-5.562500 -4.406250 -9.593750 -10.093750q-4.015625 -5.687500 -6.593750 -12.140625q-2.562500 -6.437500 -3.828125 -13.468750q-1.265625 -7.031250 -1.265625 -14.109375q0.000000 -7.171875 1.265625 -14.203125q1.265625 -7.031250 3.875000 -13.531250q2.625000 -6.500000 6.671875 -12.156250q4.062500 -5.671875 9.468750 -9.921875q0.000000 -0.187500 0.500000 -0.187500l0.921875 0.000000q0.296875 0.000000 0.531250 0.265625q0.250000 0.265625 0.250000 0.609375q0.000000 0.437500 -0.187500 0.640625q-4.890625 4.781250 -8.140625 10.250000q-3.250000 5.468750 -5.234375 11.656250q-1.968750 6.171875 -2.843750 12.796875q-0.875000 6.609375 -0.875000 13.781250q0.000000 31.781250 16.984375 48.296875q0.296875 0.281250 0.296875 0.828125q0.000000 0.234375 -0.265625 0.546875q-0.265625 0.328125 -0.515625 0.328125l-0.921875 0.000000q-0.500000 0.000000 -0.500000 -0.187500"/>
<path id="c_75c38898ea241ebcbd0918e2320a1d61" d="M8.687500 -6.109375q2.687500 4.593750 10.796875 4.593750q3.515625 0.000000 6.687500 -1.187500q3.171875 -1.203125 5.250000 -3.593750q2.078125 -2.390625 2.078125 -5.812500q0.000000 -2.593750 -1.859375 -4.250000q-1.859375 -1.656250 -4.546875 -2.250000l-5.406250 -1.062500q-3.718750 -0.937500 -6.109375 -3.468750q-2.390625 -2.546875 -2.390625 -6.156250q0.000000 -4.437500 2.406250 -7.859375q2.421875 -3.421875 6.375000 -5.218750q3.953125 -1.812500 8.203125 -1.812500q4.546875 0.000000 8.125000 2.171875q3.593750 2.171875 3.593750 6.421875q0.000000 2.296875 -1.296875 4.062500q-1.281250 1.750000 -3.578125 1.750000q-1.328125 0.000000 -2.281250 -0.859375q-0.937500 -0.859375 -0.937500 -2.171875q0.000000 -1.171875 0.656250 -2.265625q0.656250 -1.109375 1.750000 -1.765625q1.109375 -0.656250 2.281250 -0.656250q-0.890625 -2.156250 -3.312500 -3.125000q-2.406250 -0.984375 -5.187500 -0.984375q-2.546875 0.000000 -5.093750 1.031250q-2.531250 1.031250 -4.078125 3.015625q-1.531250 1.968750 -1.531250 4.656250q0.000000 1.796875 1.265625 3.171875q1.281250 1.359375 3.140625 1.953125l5.812500 1.171875q2.781250 0.578125 5.093750 2.078125q2.328125 1.484375 3.656250 3.765625q1.343750 2.265625 1.343750 5.187500q0.000000 3.718750 -2.078125 7.328125q-2.062500 3.609375 -5.093750 5.765625q-5.328125 3.609375 -13.031250 3.609375q-5.328125 0.000000 -9.781250 -2.437500q-4.437500 -2.453125 -4.437500 -7.281250q0.000000 -2.734375 1.578125 -4.750000q1.593750 -2.031250 4.328125 -2.031250q1.625000 0.000000 2.718750 0.984375q1.093750 0.968750 1.093750 2.578125q0.000000 2.296875 -1.718750 4.000000q-1.703125 1.703125 -3.984375 1.703125z"/>
<path id="c_67a1adfdf9fbdb7189c9402c3f73ee06" d="M20.125000 1.125000q-4.796875 0.000000 -8.390625 -2.484375q-3.578125 -2.500000 -5.468750 -6.718750q-1.875000 -4.234375 -1.875000 -8.921875q0.000000 -7.125000 3.593750 -13.390625q3.593750 -6.281250 9.734375 -10.031250q6.156250 -3.765625 13.187500 -3.765625q4.296875 0.000000 7.500000 2.218750q3.203125 2.218750 3.203125 6.375000q0.000000 5.765625 -4.593750 8.578125q-4.593750 2.796875 -10.359375 3.453125q-5.750000 0.656250 -12.734375 0.656250l-0.296875 0.000000q-1.609375 5.968750 -1.609375 10.203125q0.000000 4.453125 2.046875 7.828125q2.046875 3.359375 6.250000 3.359375q5.953125 0.000000 11.437500 -2.734375q5.500000 -2.734375 8.968750 -7.562500q0.296875 -0.296875 0.781250 -0.296875q0.500000 0.000000 1.000000 0.562500q0.515625 0.562500 0.515625 1.046875q0.000000 0.390625 -0.187500 0.593750q-3.671875 5.125000 -9.875000 8.078125q-6.187500 2.953125 -12.828125 2.953125M14.203125 -25.484375q5.812500 0.000000 10.750000 -0.531250q4.937500 -0.546875 8.937500 -2.718750q4.000000 -2.171875 4.000000 -6.765625q0.000000 -1.859375 -1.031250 -3.250000q-1.015625 -1.390625 -2.656250 -2.125000q-1.640625 -0.734375 -3.390625 -0.734375q-4.250000 0.000000 -7.640625 2.296875q-3.390625 2.296875 -5.593750 5.984375q-2.203125 3.687500 -3.375000 7.843750"/>
<path id="c_b07d6f11a21858567942a721216c1186" d="M11.718750 -11.921875q0.000000 4.359375 2.218750 7.390625q2.218750 3.015625 6.375000 3.015625q5.953125 0.000000 11.437500 -2.734375q5.500000 -2.734375 8.968750 -7.562500q0.296875 -0.296875 0.781250 -0.296875q0.500000 0.000000 1.000000 0.562500q0.515625 0.562500 0.515625 1.046875q0.000000 0.390625 -0.187500 0.593750q-3.671875 5.125000 -9.875000 8.078125q-6.187500 2.953125 -12.828125 2.953125q-4.796875 0.000000 -8.453125 -2.265625q-3.656250 -2.281250 -5.671875 -6.078125q-2.000000 -3.812500 -2.000000 -8.609375q0.000000 -6.734375 3.765625 -13.375000q3.765625 -6.640625 10.015625 -10.812500q6.250000 -4.171875 13.125000 -4.171875q4.500000 0.000000 8.078125 2.171875q3.593750 2.171875 3.593750 6.421875q0.000000 2.734375 -1.593750 4.671875q-1.578125 1.921875 -4.265625 1.921875q-1.609375 0.000000 -2.718750 -1.000000q-1.093750 -1.000000 -1.093750 -2.625000q0.000000 -2.343750 1.703125 -4.000000q1.718750 -1.656250 4.015625 -1.656250l0.187500 0.000000q-1.171875 -1.703125 -3.390625 -2.515625q-2.218750 -0.812500 -4.609375 -0.812500q-5.859375 0.000000 -10.265625 5.015625q-4.390625 5.000000 -6.609375 11.968750q-2.218750 6.953125 -2.218750 12.703125"/>
<path id="c_b865a8a4692360a5eaaff4ecf56eccf7" d="M6.500000 25.000000q-0.890625 0.000000 -0.890625 -0.875000q0.000000 -0.437500 0.203125 -0.640625q17.093750 -16.703125 17.093750 -48.484375q0.000000 -31.781250 -16.906250 -48.296875q-0.390625 -0.234375 -0.390625 -0.828125q0.000000 -0.343750 0.265625 -0.609375q0.281250 -0.265625 0.625000 -0.265625l0.921875 0.000000q0.296875 0.000000 0.484375 0.187500q7.187500 5.671875 11.968750 13.781250q4.781250 8.093750 7.000000 17.281250q2.234375 9.171875 2.234375 18.750000q0.000000 7.078125 -1.203125 13.937500q-1.203125 6.859375 -3.812500 13.515625q-2.609375 6.671875 -6.609375 12.312500q-4.000000 5.640625 -9.578125 10.046875q-0.187500 0.187500 -0.484375 0.187500z"/>
</defs>
<g id="mathtext1">
<g style="fill: #000000" transform="translate(353.574240,132.996273)">
<use xlink:href="#c_e86f490bde0b3795f8a34411d82f95e4" transform="translate(0.000000,-3.500000)scale(0.100000)"/>
<use xlink:href="#c_d385b7bbe58e08154ff387bfd902116e" transform="translate(6.220703,-3.500000)scale(0.100000)"/>
<use xlink:href="#c_06a7a4502300c60b4feec85758ecf628" transform="translate(9.829102,-3.500000)scale(0.100000)"/>
<use xlink:href="#c_75c38898ea241ebcbd0918e2320a1d61" transform="translate(13.710938,-3.500000)scale(0.100000)"/>
<use xlink:href="#c_67a1adfdf9fbdb7189c9402c3f73ee06" transform="translate(18.388672,-3.500000)scale(0.100000)"/>
<use xlink:href="#c_b07d6f11a21858567942a721216c1186" transform="translate(23.037109,-3.500000)scale(0.100000)"/>
<use xlink:href="#c_b865a8a4692360a5eaaff4ecf56eccf7" transform="translate(27.358398,-3.500000)scale(0.100000)"/>
</g>
</g>
</g>
</g>
<g id="matplotlib.axis2">
<g id="ytick1">
<g id="line2d73">
<defs><path id="m3400efa6b1638b3fea9e19e898273957" d="M0.000000 0.000000L4.000000 0.000000"/></defs>
<g ><use style="fill: none; stroke: #000000; stroke-width: 0.500000; stroke-linejoin: round; stroke-linecap: butt;  opacity: 1.000000" xlink:href="#m3400efa6b1638b3fea9e19e898273957" x="29.356250" y="224.937771"/>
</g></g>
<g id="text7">
<defs>
<path id="c_7b26b13f539f13a4c64eef23b6952d29" d="M4.890625 -31.390625l26.312500 0.000000l0.000000 8.000000l-26.312500 0.000000z"/>
</defs>
<g style="fill: #000000; opacity: 1.000000" transform="translate(16.793750,228.586209)scale(0.100000)">
<use xlink:href="#c_7b26b13f539f13a4c64eef23b6952d29"/>
<use xlink:href="#c_42baa63129a918535c52adb20d687ea7" x="36.083984"/>
</g>
</g>
</g>
<g id="ytick2">
<g id="line2d74">
<g ><use style="fill: none; stroke: #000000; stroke-width: 0.500000; stroke-linejoin: round; stroke-linecap: butt;  opacity: 1.000000" xlink:href="#m3400efa6b1638b3fea9e19e898273957" x="29.356250" y="177.467022"/>
</g></g>
<g id="text8">
<g style="fill: #000000; opacity: 1.000000" transform="translate(7.200000,181.107647)scale(0.100000)">
<use xlink:href="#c_7b26b13f539f13a4c64eef23b6952d29"/>
<use xlink:href="#c_7a2040fe3b94fcd41d0a72c84e93b115" x="36.083984"/>
<use xlink:href="#c_ed3e21196fb739f392806f09ca0594ef" x="99.707031"/>
<use xlink:href="#c_1260a2df50f305f3db244e29828f968e" x="131.494141"/>
</g>
</g>
</g>
<g id="ytick3">
<g id="line2d75">
<g ><use style="fill: none; stroke: #000000; stroke-width: 0.500000; stroke-linejoin: round; stroke-linecap: butt;  opacity: 1.000000" xlink:href="#m3400efa6b1638b3fea9e19e898273957" x="29.356250" y="129.996273"/>
</g></g>
</g>
<g id="ytick4">
<g id="line2d76">
<g ><use style="fill: none; stroke: #000000; stroke-width: 0.500000; stroke-linejoin: round; stroke-linecap: butt;  opacity: 1.000000" xlink:href="#m3400efa6b1638b3fea9e19e898273957" x="29.356250" y="82.525524"/>
</g></g>
<g id="text9">
<g style="fill: #000000; opacity: 1.000000" transform="translate(10.981250,86.166149)scale(0.100000)">
<use xlink:href="#c_7a2040fe3b94fcd41d0a72c84e93b115"/>
<use xlink:href="#c_ed3e21196fb739f392806f09ca0594ef" x="63.623047"/>
<use xlink:href="#c_1260a2df50f305f3db244e29828f968e" x="95.410156"/>
</g>
</g>
</g>
<g id="ytick5">
<g id="line2d77">
<g ><use style="fill: none; stroke: #000000; stroke-width: 0.500000; stroke-linejoin: round; stroke-linecap: butt;  opacity: 1.000000" xlink:href="#m3400efa6b1638b3fea9e19e898273957" x="29.356250" y="35.054775"/>
</g></g>
<g id="text10">
<g style="fill: #000000; opacity: 1.000000" transform="translate(21.012500,38.703213)scale(0.100000)">
<use xlink:href="#c_42baa63129a918535c52adb20d687ea7"/>
</g>
</g>
</g>
<g id="ytick6">
<g id="line2d78">
<defs><path id="mb39cfcf7402899e54c4d755745537394" d="M0.000000 0.000000L2.000000 0.000000"/></defs>
<g ><use style="fill: none; stroke: #000000; stroke-width: 0.500000; stroke-linejoin: round; stroke-linecap: butt;  opacity: 1.000000" xlink:href="#mb39cfcf7402899e54c4d755745537394" x="29.356250" y="234.431921"/>
</g></g>
</g>
<g id="ytick7">
<g id="line2d79">
<g ><use style="fill: none; stroke: #000000; stroke-width: 0.500000; stroke-linejoin: round; stroke-linecap: butt;  opacity: 1.000000" xlink:href="#mb39cfcf7402899e54c4d755745537394" x="29.356250" y="215.443621"/>
</g></g>
</g>
<g id="ytick8">
<g id="line2d80">
<g ><use style="fill: none; stroke: #000000; stroke-width: 0.500000; stroke-linejoin: round; stroke-linecap: butt;  opacity: 1.000000" xlink:href="#mb39cfcf7402899e54c4d755745537394" x="29.356250" y="205.949472"/>
</g></g>
</g>
<g id="ytick9">
<g id="line2d81">
<g ><use style="fill: none; stroke: #000000; stroke-width: 0.500000; stroke-linejoin: round; stroke-linecap: butt;  opacity: 1.000000" xlink:href="#mb39cfcf7402899e54c4d755745537394" x="29.356250" y="196.455322"/>
</g></g>
</g>
<g id="ytick10">
<g id="line2d82">
<g ><use style="fill: none; stroke: #000000; stroke-width: 0.500000; stroke-linejoin: round; stroke-linecap: butt;  opacity: 1.000000" xlink:href="#mb39cfcf7402899e54c4d755745537394" x="29.356250" y="186.961172"/>
</g></g>
</g>
<g id="ytick11">
<g id="line2d83">
<g ><use style="fill: none; stroke: #000000; stroke-width: 0.500000; stroke-linejoin: round; stroke-linecap: butt;  opacity: 1.000000" xlink:href="#mb39cfcf7402899e54c4d755745537394" x="29.356250" y="167.972872"/>
</g></g>
</g>
<g id="ytick12">
<g id="line2d84">
<g ><use style="fill: none; stroke: #000000; stroke-width: 0.500000; stroke-linejoin: round; stroke-linecap: butt;  opacity: 1.000000" xlink:href="#mb39cfcf7402899e54c4d755745537394" x="29.356250" y="158.478723"/>
</g></g>
</g>
<g id="ytick13">
<g id="line2d85">
<g ><use style="fill: none; stroke: #000000; stroke-width: 0.500000; stroke-linejoin: round; stroke-linecap: butt;  opacity: 1.000000" xlink:href="#mb39cfcf7402899e54c4d755745537394" x="29.356250" y="148.984573"/>
</g></g>
</g>
<g id="ytick14">
<g id="line2d86">
<g ><use style="fill: none; stroke: #000000; stroke-width: 0.500000; stroke-linejoin: round; stroke-linecap: butt;  opacity: 1.000000" xlink:href="#mb39cfcf7402899e54c4d755745537394" x="29.356250" y="139.490423"/>
</g></g>
</g>
<g id="ytick15">
<g id="line2d87">
<g ><use style="fill: none; stroke: #000000; stroke-width: 0.500000; stroke-linejoin: round; stroke-linecap: butt;  opacity: 1.000000" xlink:href="#mb39cfcf7402899e54c4d755745537394" x="29.356250" y="120.502123"/>
</g></g>
</g>
<g id="ytick16">
<g id="line2d88">
<g ><use style="fill: none; stroke: #000000; stroke-width: 0.500000; stroke-linejoin: round; stroke-linecap: butt;  opacity: 1.000000" xlink:href="#mb39cfcf7402899e54c4d755745537394" x="29.356250" y="111.007974"/>
</g></g>
</g>
<g id="ytick17">
<g id="line2d89">
<g ><use style="fill: none; stroke: #000000; stroke-width: 0.500000; stroke-linejoin: round; stroke-linecap: butt;  opacity: 1.000000" xlink:href="#mb39cfcf7402899e54c4d755745537394" x="29.356250" y="101.513824"/>
</g></g>
</g>
<g id="ytick18">
<g id="line2d90">
<g ><use style="fill: none; stroke: #000000; stroke-width: 0.500000; stroke-linejoin: round; stroke-linecap: butt;  opacity: 1.000000" xlink:href="#mb39cfcf7402899e54c4d755745537394" x="29.356250" y="92.019674"/>
</g></g>
</g>
<g id="ytick19">
<g id="line2d91">
<g ><use style="fill: none; stroke: #000000; stroke-width: 0.500000; stroke-linejoin: round; stroke-linecap: butt;  opacity: 1.000000" xlink:href="#mb39cfcf7402899e54c4d755745537394" x="29.356250" y="73.031374"/>
</g></g>
</g>
<g id="ytick20">
<g id="line2d92">
<g ><use style="fill: none; stroke: #000000; stroke-width: 0.500000; stroke-linejoin: round; stroke-linecap: butt;  opacity: 1.000000" xlink:href="#mb39cfcf7402899e54c4d755745537394" x="29.356250" y="63.537225"/>
</g></g>
</g>
<g id="ytick21">
<g id="line2d93">
<g ><use style="fill: none; stroke: #000000; stroke-width: 0.500000; stroke-linejoin: round; stroke-linecap: butt;  opacity: 1.000000" xlink:href="#mb39cfcf7402899e54c4d755745537394" x="29.356250" y="54.043075"/>
</g></g>
</g>
<g id="ytick22">
<g id="line2d94">
<g ><use style="fill: none; stroke: #000000; stroke-width: 0.500000; stroke-linejoin: round; stroke-linecap: butt;  opacity: 1.000000" xlink:href="#mb39cfcf7402899e54c4d755745537394" x="29.356250" y="44.548925"/>
</g></g>
</g>
<g id="ytick23">
<g id="line2d95">
<g ><use style="fill: none; stroke: #000000; stroke-width: 0.500000; stroke-linejoin: round; stroke-linecap: butt;  opacity: 1.000000" xlink:href="#mb39cfcf7402899e54c4d755745537394" x="29.356250" y="25.560625"/>
</g></g>
</g>
<g id="text11">
<defs>
<path id="c_b1ccbd40de9466de4ee940ca0731021f" d="M8.406250 14.312500q2.093750 3.609375 7.312500 3.609375q4.734375 0.000000 8.203125 -3.328125q3.468750 -3.312500 5.593750 -8.031250q2.125000 -4.703125 3.296875 -9.640625q-4.437500 4.203125 -9.625000 4.203125q-3.953125 0.000000 -6.734375 -1.359375q-2.781250 -1.375000 -4.328125 -4.078125q-1.531250 -2.718750 -1.531250 -6.578125q0.000000 -3.265625 0.875000 -6.703125q0.890625 -3.453125 2.468750 -7.671875q1.593750 -4.234375 2.765625 -7.359375q1.312500 -3.656250 1.312500 -6.000000q0.000000 -2.984375 -2.187500 -2.984375q-3.968750 0.000000 -6.531250 4.078125q-2.562500 4.078125 -3.781250 9.109375q-0.187500 0.640625 -0.828125 0.640625l-1.171875 0.000000q-0.828125 0.000000 -0.828125 -0.937500l0.000000 -0.281250q1.609375 -5.968750 4.921875 -10.578125q3.328125 -4.609375 8.406250 -4.609375q3.562500 0.000000 6.031250 2.343750q2.468750 2.343750 2.468750 5.953125q0.000000 1.859375 -0.828125 3.906250q-0.437500 1.218750 -2.000000 5.328125q-1.562500 4.093750 -2.406250 6.781250q-0.828125 2.687500 -1.359375 5.281250q-0.531250 2.578125 -0.531250 5.171875q0.000000 3.312500 1.406250 5.609375q1.421875 2.296875 4.500000 2.296875q6.203125 0.000000 11.125000 -7.562500l7.578125 -30.812500q0.328125 -1.328125 1.546875 -2.265625q1.234375 -0.953125 2.640625 -0.953125q1.218750 0.000000 2.125000 0.781250q0.906250 0.781250 0.906250 2.046875q0.000000 0.578125 -0.093750 0.781250l-9.921875 39.796875q-1.312500 5.125000 -4.828125 9.812500q-3.515625 4.687500 -8.468750 7.546875q-4.953125 2.859375 -10.328125 2.859375q-2.593750 0.000000 -5.140625 -1.015625q-2.531250 -1.000000 -4.093750 -3.000000q-1.562500 -2.000000 -1.562500 -4.687500q0.000000 -2.734375 1.609375 -4.734375q1.625000 -2.000000 4.296875 -2.000000q1.625000 0.000000 2.718750 1.000000q1.093750 1.000000 1.093750 2.609375q0.000000 2.296875 -1.718750 4.000000q-1.703125 1.718750 -3.984375 1.718750q-0.109375 -0.046875 -0.203125 -0.078125q-0.093750 -0.015625 -0.187500 -0.015625"/>
</defs>
<g id="mathtext2">
<g style="fill: #000000" transform="translate(26.856250,15.200000)">
<use xlink:href="#c_b1ccbd40de9466de4ee940ca0731021f" transform="translate(0.000000,-3.578125)scale(0.100000)"/>
</g>
</g>
</g>
</g>
<g id="patch3">
<path style="fill: none; stroke: #000000; stroke-width: 0.800000; stroke-linejoin: round; stroke-linecap: square;  opacity: 1.000000"  d="M10.774240 129.996273L345.574240 129.996273"/>
</g>
<g id="patch4">
<path style="fill: none; stroke: #000000; stroke-width: 0.800000; stroke-linejoin: round; stroke-linecap: square;  opacity: 1.000000"  d="M29.356250 236.792547L29.356250 23.200000"/>
</g>
</g>
</g>
</svg>
